<svg xmlns="http://www.w3.org/2000/svg" xmlns:xlink="http://www.w3.org/1999/xlink" viewBox="0 0 195.16 195.16"><defs><style>.cls-1{fill:url(#New_Gradient_Swatch_2);}</style><radialGradient id="New_Gradient_Swatch_2" cx="97.58" cy="97.58" r="97.58" gradientUnits="userSpaceOnUse"><stop offset="0" stop-color="#7d39e5"/><stop offset="0.51" stop-color="#722ae8"/><stop offset="0.53" stop-color="#7129e8"/><stop offset="0.59" stop-color="#6e24e9"/><stop offset="0.81" stop-color="#6717ea"/><stop offset="1" stop-color="#6412eb"/></radialGradient></defs><title>Asset 1</title><g id="Layer_2" data-name="Layer 2"><g id="Layer_1-2" data-name="Layer 1"><path class="cls-1" d="M195.16,97.58,183.12,86v8.44H163.66l14.46-18.2a3.12,3.12,0,1,0-4.89-3.89L155.69,94.46h-8.33l7.34-9.25a3.12,3.12,0,1,0-4.88-3.88L139.39,94.46H128V86.25a3.11,3.11,0,0,0-.91-2.2l-5.81-5.81,8-8L146,72.13l.36,0a3.12,3.12,0,0,0,.35-6.22L135,64.58l5.89-5.89,28,3.21a2.17,2.17,0,0,0,.36,0,3.12,3.12,0,0,0,.35-6.22l-23.1-2.64L160.27,39.3l6,6,.35-16.68-16.69.34,6,6L142.1,48.65l-2.65-23.1a3.12,3.12,0,0,0-6.2.71l3.21,28-5.89,5.89-1.34-11.73a3.12,3.12,0,1,0-6.2.71l1.91,16.66-8,8-5.8-5.8a3.11,3.11,0,0,0-2.21-.91h-8.2V55.77l13.13-10.44a3.12,3.12,0,1,0-3.89-4.88L100.7,47.8V39.47l22.08-17.55A3.12,3.12,0,1,0,118.9,17L100.7,31.5V12h8.43L97.58,0,86,12h8.44V31.5L76.26,17a3.12,3.12,0,1,0-3.89,4.88L94.46,39.47V47.8l-9.25-7.35a3.12,3.12,0,1,0-3.88,4.88L94.46,55.77V67.12H86.25a3.07,3.07,0,0,0-2.2.91l-5.81,5.8-8-8,1.91-16.66a3.12,3.12,0,1,0-6.2-.71L64.58,60.17l-5.89-5.89,3.21-28a3.12,3.12,0,0,0-6.2-.71l-2.64,23.1L39.3,34.88h0l6-6-16.68-.34.34,16.68,6-6h0L48.65,53.06,25.55,55.7a3.12,3.12,0,0,0,.35,6.22,2.17,2.17,0,0,0,.36,0l28-3.21,5.89,5.89L48.44,65.93a3.12,3.12,0,0,0,.35,6.22l.36,0,16.66-1.91,8,8L68,84.05a3.07,3.07,0,0,0-.91,2.2v8.21H55.77L45.34,81.33a3.12,3.12,0,0,0-4.89,3.88l7.35,9.25H39.47L21.92,72.37A3.12,3.12,0,1,0,17,76.26L31.5,94.46H12V86L0,97.58l12,11.55V100.7H31.5L17,118.9a3.12,3.12,0,0,0,.5,4.38,3.11,3.11,0,0,0,4.38-.5L39.47,100.7H47.8L40.45,110a3.12,3.12,0,0,0,.5,4.38,3.12,3.12,0,0,0,4.39-.5L55.77,100.7H67.12v8.2a3.15,3.15,0,0,0,.91,2.21l5.8,5.8-8,8L49.15,123a3.12,3.12,0,1,0-.71,6.2l11.73,1.34-5.89,5.89-28-3.21a3.12,3.12,0,0,0-.71,6.2l23.1,2.65L34.89,155.86h0l-6-6-.34,16.69,16.68-.35-6-6h0l13.76-13.76,2.64,23.1a3.13,3.13,0,0,0,3.1,2.76l.36,0a3.11,3.11,0,0,0,2.74-3.45l-3.21-28L64.58,135l1.35,11.74A3.11,3.11,0,0,0,69,149.48a2.17,2.17,0,0,0,.36,0A3.12,3.12,0,0,0,72.13,146l-1.91-16.66,8-8,5.81,5.81a3.11,3.11,0,0,0,2.2.91h8.21v11.35L81.33,149.82a3.12,3.12,0,0,0,3.88,4.89l9.25-7.35v8.33L72.37,173.24a3.12,3.12,0,0,0,3.89,4.88l18.2-14.46v19.46H86l11.56,12,11.55-12H100.7V163.66l18.2,14.46a3.12,3.12,0,1,0,3.88-4.88L100.7,155.69v-8.33l9.24,7.35a3.15,3.15,0,0,0,1.94.67,3.12,3.12,0,0,0,2-5.56L100.7,139.39V128h8.2a3.15,3.15,0,0,0,2.21-.91l5.8-5.81,8,8L123,146a3.11,3.11,0,0,0,2.74,3.45,2.17,2.17,0,0,0,.36,0,3.13,3.13,0,0,0,3.1-2.76L130.57,135l5.89,5.89-3.21,28a3.13,3.13,0,0,0,2.75,3.45l.36,0a3.11,3.11,0,0,0,3.09-2.76l2.65-23.1,13.76,13.76-6,6,16.69.35-.35-16.69-6,6L146.51,142.1l23.1-2.65a3.12,3.12,0,0,0-.71-6.2l-28,3.21L135,130.57l11.74-1.34A3.12,3.12,0,0,0,146,123l-16.66,1.91-8-8,5.81-5.8a3.15,3.15,0,0,0,.91-2.21v-8.2h11.35l10.43,13.13a3.12,3.12,0,0,0,4.89-3.88l-7.35-9.25h8.33l17.54,22.08a3.12,3.12,0,0,0,4.89-3.88l-14.46-18.2h19.46v8.43Zm-73.36-10v6.92h-9.21a15.19,15.19,0,0,0-2.2-5.29l6.52-6.52ZM97.58,106.68a9.11,9.11,0,0,1-9.1-9.09h0a9.1,9.1,0,1,1,9.1,9.11Zm10-33.33,4.89,4.89L106,84.76a15.33,15.33,0,0,0-5.28-2.2V73.35Zm-20.07,0h6.92v9.21a15.38,15.38,0,0,0-5.29,2.2l-6.52-6.52ZM73.35,87.54l4.89-4.89,6.52,6.52a15.38,15.38,0,0,0-2.2,5.29H73.35Zm0,20.07V100.7h9.21a15.33,15.33,0,0,0,2.2,5.28l-6.52,6.52ZM87.54,121.8l-4.89-4.89,6.52-6.52a15.19,15.19,0,0,0,5.29,2.2v9.21Zm20.07,0H100.7v-9.21a15.14,15.14,0,0,0,5.28-2.2l6.52,6.52Zm14.19-14.19-4.89,4.89L110.39,106a15.14,15.14,0,0,0,2.2-5.28h9.21Z"/></g></g></svg>