<?xml version="1.0" standalone="no"?>
<!DOCTYPE svg PUBLIC "-//W3C//DTD SVG 20010904//EN"
 "http://www.w3.org/TR/2001/REC-SVG-20010904/DTD/svg10.dtd">
<svg version="1.0" xmlns="http://www.w3.org/2000/svg"
 width="1545.000000pt" height="2000.000000pt" viewBox="0 0 1545.000000 2000.000000"
 preserveAspectRatio="xMidYMid meet">

<g transform="translate(0.000000,2000.000000) scale(0.100000,-0.100000)"
fill="#000000" stroke="none">
<path d="M6417 12904 c-744 -115 -1360 -677 -1542 -1404 -55 -221 -55 -210
-55 -1500 0 -1023 2 -1208 15 -1299 82 -560 402 -1047 885 -1348 178 -111 363
-184 605 -241 l110 -26 1245 -3 c1093 -3 1257 -2 1345 12 504 79 938 340 1240
746 208 279 331 602 365 954 14 149 14 2261 0 2410 -74 783 -613 1432 -1369
1650 -232 66 -200 65 -1544 64 -971 -1 -1229 -4 -1300 -15z m2360 -466 c71
-26 155 -104 190 -176 25 -51 28 -68 28 -157 0 -95 -2 -103 -34 -163 -40 -74
-93 -124 -171 -161 -47 -22 -68 -26 -145 -26 -77 0 -98 4 -147 27 -73 34 -137
98 -174 174 -25 52 -29 70 -29 149 0 77 4 98 27 147 51 110 137 178 258 204
64 15 125 9 197 -18z m-1295 -302 c117 -55 197 -170 206 -296 6 -87 -9 -147
-55 -219 -22 -34 -224 -245 -516 -539 l-481 -482 496 -498 c570 -572 553 -550
553 -707 0 -78 -4 -97 -28 -147 -36 -74 -101 -139 -175 -175 -50 -24 -68 -28
-148 -28 -160 0 -128 -27 -862 706 -687 687 -685 684 -701 804 -10 70 3 143
36 209 19 40 165 192 651 679 345 345 651 644 679 664 29 20 74 42 100 49 71
20 179 11 245 -20z m1968 -384 c25 -8 63 -27 85 -42 22 -16 165 -154 317 -307
229 -230 281 -287 302 -333 96 -216 -36 -465 -268 -501 -79 -13 -179 8 -246
51 -25 16 -170 154 -322 308 -326 327 -333 337 -333 487 0 77 4 98 27 147 80
172 259 250 438 190z m-1224 -799 c27 -9 67 -29 89 -44 22 -16 326 -313 676
-661 728 -724 694 -683 694 -843 -1 -161 28 -125 -708 -861 -733 -732 -691
-698 -852 -699 -82 0 -96 3 -157 33 -183 90 -253 302 -161 487 19 38 140 166
515 541 270 271 489 496 487 502 -2 6 -219 229 -483 496 -263 267 -490 502
-504 522 -53 78 -68 213 -34 306 65 180 263 280 438 221z m-2441 -1528 c52
-23 99 -67 342 -311 156 -156 294 -301 307 -322 38 -58 60 -146 52 -215 -27
-265 -326 -413 -546 -271 -51 32 -561 541 -598 595 -67 99 -81 236 -34 342 25
57 113 152 164 178 93 47 216 49 313 4z m1177 -1182 c60 -27 151 -112 181
-168 8 -17 21 -58 27 -93 52 -260 -207 -487 -460 -402 -253 84 -330 395 -145
585 106 108 259 138 397 78z"/>
</g>
</svg>
