<svg xmlns="http://www.w3.org/2000/svg" xmlns:xlink="http://www.w3.org/1999/xlink" viewBox="0 0 137.87 138.93"><defs><style>.cls-1{fill:url(#New_Gradient_Swatch_6);}.cls-2{fill:url(#New_Gradient_Swatch_5);}.cls-3{fill:#fff;}.cls-4{fill:url(#New_Gradient_Swatch_5-2);}</style><linearGradient id="New_Gradient_Swatch_6" x1="68.93" y1="138.93" x2="68.93" gradientUnits="userSpaceOnUse"><stop offset="0" stop-color="#3f8fba"/><stop offset="0.5" stop-color="#3878c8"/><stop offset="1" stop-color="#3266d4"/></linearGradient><linearGradient id="New_Gradient_Swatch_5" x1="68.98" y1="85.95" x2="68.98" y2="138.93" gradientUnits="userSpaceOnUse"><stop offset="0" stop-color="#8ad6f4"/><stop offset="0.37" stop-color="#65a7e7"/><stop offset="0.79" stop-color="#4078d9"/><stop offset="1" stop-color="#3266d4"/></linearGradient><linearGradient id="New_Gradient_Swatch_5-2" x1="62.6" y1="28.07" x2="62.23" y2="52.55" gradientTransform="translate(1.35 7.74) rotate(-0.86)" xlink:href="#New_Gradient_Swatch_5"/></defs><title>Asset 2</title><g id="Layer_2" data-name="Layer 2"><g id="Layer_1-2" data-name="Layer 1"><rect class="cls-1" width="137.87" height="138.93" rx="9.28"/><polygon class="cls-2" points="86.22 138.93 51.75 138.93 51.86 86.2 86.17 85.95 86.22 138.93"/><path class="cls-3" d="M60.08,20.12,83.45,34.05a5.58,5.58,0,0,1,.19,9.46L60.87,58.36a5.58,5.58,0,0,1-8.62-4.55L51.65,25A5.57,5.57,0,0,1,60.08,20.12Z"/><path class="cls-4" d="M75.77,42.23a7.57,7.57,0,0,1,.85,5.86c-5.27,3.39-10.5,7-15.76,10.36a5.66,5.66,0,0,1-8.68-4.64c-.09-6.31-.23-12.63-.33-18.94.07.73.65,5.64,4.31,7.45A6.76,6.76,0,0,0,59,43c4.39.12,5.56-3.58,9.66-3.95A7.83,7.83,0,0,1,75.77,42.23Z"/><path class="cls-3" d="M86.18,95.67a3.27,3.27,0,0,1-.3.83c-.79,1.47-1.9,3.29-3.79,3.59a4.5,4.5,0,0,1-2.87-.56c-2.83-1.57-2.08-5-4.71-6.22a4.06,4.06,0,0,0-2.72-.16c-1.25.41-1.6,1.37-3.51,4.15-2.23,3.25-3,3.82-3.83,4.15a4.8,4.8,0,0,1-2.87.32c-3.31-.76-3.63-5.37-6.7-5.83a2.73,2.73,0,0,0-1.68.24,3,3,0,0,0-1.34,2.33s-.13-4.64,0-10.69c0-2.82,0-5.49,0-9.82a5.2,5.2,0,0,1,2.32-4.34l24-15.92c3.61-2.39,8,.39,8,4.71C86.17,74,86.22,95,86.18,95.67Z"/></g></g></svg>