<?xml version="1.0" standalone="no"?>
<!DOCTYPE svg PUBLIC "-//W3C//DTD SVG 20010904//EN"
 "http://www.w3.org/TR/2001/REC-SVG-20010904/DTD/svg10.dtd">
<svg version="1.0" xmlns="http://www.w3.org/2000/svg"
 width="1545.000000pt" height="2000.000000pt" viewBox="0 0 1545.000000 2000.000000"
 preserveAspectRatio="xMidYMid meet">

<g transform="translate(0.000000,2000.000000) scale(0.100000,-0.100000)"
fill="#000000" stroke="none">
<path d="M3665 12920 c-600 -37 -1153 -370 -1476 -890 -113 -182 -205 -415
-251 -635 -23 -109 -23 -118 -23 -810 l0 -700 28 -127 c103 -472 351 -863 725
-1141 277 -206 600 -332 941 -367 165 -16 1130 -13 1282 5 641 75 1193 466
1480 1050 68 140 127 313 160 475 24 114 24 119 24 795 0 723 0 722 -51 927
-90 364 -306 714 -586 954 -339 289 -701 438 -1132 464 -173 11 -942 11 -1121
0z m1432 -396 c98 -47 157 -143 157 -254 0 -211 -216 -347 -406 -256 -102 48
-157 137 -159 254 -3 215 210 349 408 256z m-1084 -220 c61 -21 132 -84 164
-148 20 -40 26 -66 27 -121 1 -120 -2 -123 -441 -565 -216 -218 -393 -400
-393 -405 0 -5 179 -189 399 -410 372 -374 400 -404 417 -455 41 -124 8 -245
-87 -320 -57 -45 -101 -60 -180 -60 -125 0 -101 -20 -677 554 -577 575 -574
571 -575 689 -1 47 6 76 27 122 24 53 70 102 376 405 761 754 701 697 755 713
66 20 131 21 188 1z m1634 -329 c26 -11 117 -95 279 -258 219 -219 243 -247
259 -295 22 -67 17 -170 -10 -227 -27 -55 -96 -120 -150 -141 -57 -21 -183
-16 -235 10 -47 24 -485 459 -517 515 -20 32 -27 61 -31 117 -6 92 14 149 72
212 87 95 207 119 333 67z m-977 -643 c31 -16 205 -182 567 -540 578 -572 566
-558 567 -683 0 -121 5 -116 -571 -691 -574 -573 -557 -559 -684 -559 -57 0
-82 5 -125 26 -96 47 -157 145 -157 255 0 121 1 122 440 561 217 218 394 401
392 407 -2 6 -181 190 -397 411 -276 281 -398 413 -412 443 -26 57 -27 168 -1
224 29 63 80 114 146 146 51 25 70 29 125 26 42 -2 81 -12 110 -26z m-1985
-1212 c37 -18 109 -84 280 -258 126 -128 239 -250 249 -270 12 -22 21 -66 24
-110 4 -66 2 -78 -27 -137 -72 -145 -228 -201 -377 -136 -37 17 -102 75 -276
249 -260 260 -278 287 -278 407 1 132 84 245 205 276 55 14 147 5 200 -21z
m957 -953 c105 -61 154 -151 146 -269 -7 -114 -59 -191 -163 -240 -210 -99
-443 86 -396 315 21 97 90 177 188 213 60 22 171 13 225 -19z"/>
<path d="M11735 11367 c-76 -43 -107 -148 -67 -226 9 -19 34 -48 55 -65 33
-26 47 -31 95 -31 67 0 116 24 149 74 46 68 42 149 -10 208 -58 66 -147 82
-222 40z m169 -5 c9 -14 -12 -35 -28 -29 -23 9 -20 37 3 37 11 0 22 -4 25 -8z
m-84 -25 c0 -6 -16 -27 -35 -47 l-35 -36 35 -34 c38 -37 45 -60 18 -60 -18 0
-103 77 -103 94 0 19 92 104 106 99 8 -3 14 -10 14 -16z m137 -29 c25 -23 29
-43 12 -54 -15 -9 -69 45 -62 62 7 20 23 17 50 -8z m-55 -75 c26 -26 48 -51
48 -55 0 -17 -83 -98 -101 -98 -29 0 -23 30 13 67 l32 33 -33 34 c-21 22 -31
41 -28 50 9 24 17 20 69 -31z m-180 -70 c19 -17 24 -48 9 -57 -14 -9 -61 33
-61 55 0 24 27 25 52 2z m68 -79 c0 -19 -28 -30 -42 -16 -8 8 -8 15 1 26 14
17 41 10 41 -10z"/>
<path d="M7270 11264 c-202 -43 -351 -198 -395 -409 -19 -91 -19 -255 0 -347
32 -152 127 -288 249 -358 75 -43 191 -70 296 -70 323 0 511 187 527 527 l6
113 -282 0 -281 0 0 -100 0 -100 161 0 161 0 -7 -32 c-11 -50 -30 -81 -73
-120 -54 -49 -101 -63 -208 -63 -81 0 -97 3 -149 30 -69 35 -113 88 -146 172
-29 76 -32 240 -7 323 52 169 193 252 375 222 81 -14 138 -50 171 -110 l23
-42 119 0 119 0 -15 53 c-36 120 -111 210 -224 267 -112 56 -282 74 -420 44z"/>
<path d="M10320 11078 l0 -191 -23 21 c-40 38 -117 65 -199 70 -263 16 -428
-154 -430 -443 -1 -204 79 -354 225 -421 54 -25 74 -28 157 -29 107 0 170 18
232 66 20 16 39 29 42 29 3 0 6 -20 6 -45 l0 -45 110 0 110 0 0 590 0 590
-115 0 -115 0 0 -192z m-90 -343 c60 -42 85 -101 85 -205 -1 -120 -39 -188
-127 -225 -72 -30 -171 -13 -227 38 -41 38 -61 95 -61 178 0 121 36 194 114
231 61 28 162 20 216 -17z"/>
<path d="M12180 11085 l0 -115 -65 0 -65 0 0 -105 0 -105 64 0 65 0 3 -247 c3
-235 4 -250 25 -290 46 -84 121 -119 285 -130 l98 -6 0 106 0 107 -52 0 c-124
0 -128 9 -128 265 l0 195 95 0 95 0 0 105 0 105 -95 0 -95 0 0 115 0 115 -115
0 -115 0 0 -115z"/>
<path d="M8471 10969 c-43 -13 -108 -54 -123 -79 -19 -30 -25 -25 -32 30 l-7
51 -102 -3 -102 -3 -3 -438 -2 -438 117 3 117 3 -2 165 c-1 91 1 209 6 263 8
84 13 104 38 139 38 55 102 86 193 94 l71 7 0 108 0 109 -67 -1 c-38 0 -83 -5
-102 -10z"/>
<path d="M9018 10965 c-113 -29 -192 -85 -234 -166 -44 -87 -42 -89 91 -89
102 0 115 2 124 19 15 27 83 51 145 51 83 0 135 -44 152 -127 l6 -30 -144 -6
c-79 -3 -168 -11 -198 -18 -160 -34 -239 -129 -228 -273 10 -118 71 -191 192
-228 126 -38 266 -10 349 70 l37 36 0 -57 0 -57 106 0 106 0 -5 303 c-4 335
-8 360 -72 452 -62 90 -138 125 -280 131 -57 2 -111 -2 -147 -11z m278 -546
c-16 -102 -130 -171 -246 -149 -77 14 -115 90 -75 148 23 32 65 40 204 41
l124 1 -7 -41z"/>
<path d="M11009 10966 c-213 -59 -335 -271 -300 -519 19 -138 73 -230 172
-296 103 -69 241 -88 382 -52 138 36 221 111 261 239 7 22 6 22 -108 22 -107
0 -116 -2 -126 -21 -30 -56 -175 -78 -257 -38 -44 21 -84 75 -97 132 l-6 27
300 0 300 0 6 26 c11 43 -3 175 -24 237 -59 165 -199 258 -387 256 -38 0 -91
-7 -116 -13z m226 -201 c41 -24 66 -60 80 -117 l7 -28 -191 0 c-217 0 -211 -3
-168 80 31 62 82 90 166 90 50 0 73 -5 106 -25z"/>
<path d="M11697 10963 c-4 -3 -7 -201 -7 -440 l0 -433 115 0 115 0 0 440 0
440 -108 0 c-60 0 -112 -3 -115 -7z"/>
</g>
</svg>
