<svg xmlns="http://www.w3.org/2000/svg" xmlns:xlink="http://www.w3.org/1999/xlink" viewBox="0 0 431.54 99.93"><defs><style>.cls-1{font-size:78.3px;font-family:RedHatDisplay-Black, Red Hat Display;font-weight:800;}.cls-2{letter-spacing:-0.01em;}.cls-3{letter-spacing:0em;}.cls-4{letter-spacing:0em;}.cls-5{letter-spacing:-0.02em;}.cls-6{fill:url(#New_Gradient_Swatch_6);}.cls-7{fill:url(#New_Gradient_Swatch_6-10);}.cls-8{fill:url(#New_Gradient_Swatch_13);}.cls-9{fill:url(#New_Gradient_Swatch_6-11);}.cls-10{fill:url(#New_Gradient_Swatch_13-2);}</style><linearGradient id="New_Gradient_Swatch_6" x1="231.45" y1="21.17" x2="231.45" y2="77.62" gradientUnits="userSpaceOnUse"><stop offset="0" stop-color="#3f8fba"/><stop offset="0.5" stop-color="#3878c8"/><stop offset="1" stop-color="#3266d4"/></linearGradient><linearGradient id="New_Gradient_Swatch_6-10" x1="12.52" y1="41.9" x2="12.52" y2="77.51" xlink:href="#New_Gradient_Swatch_6"/><linearGradient id="New_Gradient_Swatch_13" x1="14.28" y1="4.75" x2="3.03" y2="24.24" gradientUnits="userSpaceOnUse"><stop offset="0" stop-color="#9dc8ec"/><stop offset="1" stop-color="#fff"/></linearGradient><linearGradient id="New_Gradient_Swatch_6-11" x1="5.69" y1="24.09" x2="5.92" y2="8.7" gradientTransform="translate(3.56 1.17) rotate(-0.86)" xlink:href="#New_Gradient_Swatch_6"/><linearGradient id="New_Gradient_Swatch_13-2" x1="6.07" y1="31.22" x2="23.5" y2="48.65" xlink:href="#New_Gradient_Swatch_13"/></defs><title>Asset 5</title><g id="Layer_2" data-name="Layer 2"><g id="Layer_1-2" data-name="Layer 1"><text class="cls-1" transform="translate(30.35 76.84)"><tspan class="cls-2">c</tspan><tspan x="41.03" y="0">e</tspan><tspan class="cls-2" x="87.61" y="0">C</tspan><tspan class="cls-3" x="142.5" y="0">o</tspan><tspan class="cls-2" x="191.51" y="0">n</tspan><tspan class="cls-4" x="238.18" y="0">t</tspan><tspan x="272.87" y="0">e</tspan><tspan class="cls-5" x="319.45" y="0">n</tspan><tspan x="366.12" y="0">t</tspan></text><path class="cls-6" d="M32.38,56.17c0-12.14,9.55-21.53,21.92-21.53a23.45,23.45,0,0,1,17.54,7.67l-7.75,8.06c-2.9-3.28-5.79-4.77-9.47-4.77C49.14,45.6,45,50.14,45,56.17s4.22,10.49,9.94,10.49c3.44,0,6.26-1.41,9-4.46L71.45,70a23,23,0,0,1-17.15,7.6C41.93,77.62,32.38,68.3,32.38,56.17Z"/><path class="cls-6" d="M73.41,56.17A21.27,21.27,0,0,1,95,34.72c12.13,0,20.9,9.55,20.9,22.62v3.13H86.4a10.75,10.75,0,0,0,10.18,6.58,11.24,11.24,0,0,0,8.3-3.13l8.38,7.44A25,25,0,0,1,96,77.62C83.27,77.62,73.41,68.22,73.41,56.17Zm30.06-4.54a9.08,9.08,0,0,0-8.69-6.58,8.62,8.62,0,0,0-8.61,6.58Z"/><path class="cls-6" d="M120.54,49.43c0-16,12.84-28.26,29.44-28.26,9.08,0,18.24,4.23,23.25,10.73l-9.08,8.92c-3.83-4.85-8.61-7.28-14.17-7.28-8.85,0-15.58,6.81-15.58,15.89s6.89,15.74,16,15.74c5.32,0,9.87-2.27,13.54-6.81l8.85,8.69c-5.09,6.42-14.09,10.57-22.86,10.57C133.3,77.62,120.54,65.33,120.54,49.43Z"/><path class="cls-6" d="M174.88,56.17c0-12.06,9.87-21.53,22.47-21.53s22.47,9.47,22.47,21.53S210,77.62,197.35,77.62,174.88,68.22,174.88,56.17Zm32.57,0a10.11,10.11,0,1,0-20.2,0,10.11,10.11,0,1,0,20.2,0Z"/><path class="cls-6" d="M225.77,35.42h12.69v2.82a18,18,0,0,1,11.11-3.6c9.71,0,16.53,6.89,16.53,16.67V76.84H253.41V53c0-4.55-3-7.52-7.52-7.52a9.12,9.12,0,0,0-7.43,3.29v28H225.77Z"/><path class="cls-6" d="M278.31,64.23V46h-8.38V35.42h8.38V24.77L291,22V35.42h11.59V46H291V61.73c0,3.68,1.41,5,5.48,5a18.61,18.61,0,0,0,5.72-.86V76.13a37.42,37.42,0,0,1-8.85,1.25C283.4,77.38,278.31,72.92,278.31,64.23Z"/><path class="cls-6" d="M305.25,56.17a21.27,21.27,0,0,1,21.61-21.45c12.13,0,20.9,9.55,20.9,22.62v3.13H318.24a10.75,10.75,0,0,0,10.18,6.58,11.24,11.24,0,0,0,8.3-3.13l8.38,7.44a25,25,0,0,1-17.3,6.26C315.11,77.62,305.25,68.22,305.25,56.17Zm30.06-4.54a9.08,9.08,0,0,0-8.69-6.58A8.62,8.62,0,0,0,318,51.63Z"/><path class="cls-6" d="M353.71,35.42H366.4v2.82a18,18,0,0,1,11.11-3.6c9.71,0,16.52,6.89,16.52,16.67V76.84H381.35V53c0-4.55-3-7.52-7.52-7.52a9.12,9.12,0,0,0-7.43,3.29v28H353.71Z"/><path class="cls-6" d="M406.25,64.23V46h-8.38V35.42h8.38V24.77L418.93,22V35.42h11.59V46H418.93V61.73c0,3.68,1.41,5,5.48,5a18.65,18.65,0,0,0,5.72-.86V76.13a37.42,37.42,0,0,1-8.85,1.25C411.34,77.38,406.25,72.92,406.25,64.23Z"/><path class="cls-7" d="M25,75.51a2,2,0,0,1-2,2H2A2,2,0,0,1,.59,74.1a2,2,0,0,1,1.08-.56l.07-31.48,21.58-.16,0,31.64A2,2,0,0,1,25,75.51Z"/><path class="cls-8" d="M6.91.5,21.6,9.26a3.5,3.5,0,0,1,.12,6L7.41,24.55A3.5,3.5,0,0,1,2,21.69L1.61,3.59A3.51,3.51,0,0,1,6.91.5Z"/><path class="cls-9" d="M16.78,14.41a4.74,4.74,0,0,1,.53,3.68c-3.31,2.13-6.6,4.38-9.91,6.52a3.56,3.56,0,0,1-5.46-2.92c-.06-4-.14-7.94-.2-11.91,0,.46.41,3.55,2.71,4.68a4.17,4.17,0,0,0,1.79.42c2.76.08,3.5-2.25,6.08-2.49A5,5,0,0,1,16.78,14.41Z"/><path class="cls-10" d="M23.32,48a1.87,1.87,0,0,1-.19.52c-.5.92-1.19,2.07-2.38,2.26a2.86,2.86,0,0,1-1.81-.35c-1.77-1-1.3-3.18-3-3.91a2.48,2.48,0,0,0-1.7-.11c-.79.26-1,.87-2.21,2.61-1.41,2-1.92,2.41-2.41,2.61a2.91,2.91,0,0,1-1.81.2c-2.08-.47-2.28-3.37-4.21-3.66a1.79,1.79,0,0,0-1.06.15,1.9,1.9,0,0,0-.84,1.47s-.08-2.92,0-6.73c0-1.77,0-3.45,0-6.17A3.28,3.28,0,0,1,3.2,34.17l15.11-10a3.27,3.27,0,0,1,5,3C23.31,34.39,23.35,47.57,23.32,48Z"/></g></g></svg>