<svg xmlns="http://www.w3.org/2000/svg" xmlns:xlink="http://www.w3.org/1999/xlink" viewBox="0 0 311.81 311.81"><defs><style>.cls-1{fill-rule:evenodd;fill:url(#New_Gradient_Swatch_2);}.cls-2{fill:#fff;}</style><radialGradient id="New_Gradient_Swatch_2" cx="155.91" cy="155.91" r="155.91" gradientUnits="userSpaceOnUse"><stop offset="0" stop-color="#7d39e5"/><stop offset="0.51" stop-color="#722ae8"/><stop offset="0.53" stop-color="#7129e8"/><stop offset="0.59" stop-color="#6e24e9"/><stop offset="0.81" stop-color="#6717ea"/><stop offset="1" stop-color="#6412eb"/></radialGradient></defs><title>Asset 5</title><g id="Layer_2" data-name="Layer 2"><g id="Layer_1-2" data-name="Layer 1"><path class="cls-1" d="M30.93,0h250a31,31,0,0,1,30.93,30.93v250a31,31,0,0,1-30.93,30.93H30.93A31,31,0,0,1,0,280.88V30.93A31,31,0,0,1,30.93,0Z"/><path class="cls-2" d="M278.91,155.91l-15.17-14.57V152H239.2L257.43,129a3.93,3.93,0,1,0-6.15-4.9L229.16,152h-10.5l9.26-11.65a3.94,3.94,0,0,0-6.16-4.9L208.61,152h-14.3V141.63a3.94,3.94,0,0,0-1.16-2.78l-7.31-7.32L196,121.42l21,2.4a3.4,3.4,0,0,0,.45,0,3.93,3.93,0,0,0,.44-7.84l-14.79-1.69,7.42-7.43,35.33,4a3.4,3.4,0,0,0,.45,0,3.93,3.93,0,0,0,.44-7.84l-29.11-3.33,17.35-17.35L242.45,90l.43-21-21,.43,7.52,7.52L212,94.23l-3.34-29.12a3.93,3.93,0,0,0-7.81.89l4,35.33-7.42,7.42L195.8,94a3.93,3.93,0,0,0-7.81.89l2.4,21L180.28,126,173,118.66a3.91,3.91,0,0,0-2.78-1.15H159.84V103.2l16.55-13.15a3.93,3.93,0,0,0-4.89-6.16l-11.66,9.26V82.65l27.84-22.12a3.93,3.93,0,1,0-4.89-6.15L159.84,72.61V48.07h10.63L155.91,32.9,141.34,48.07H152V72.61L129,54.38a3.93,3.93,0,1,0-4.89,6.15L152,82.65v10.5l-11.66-9.26a3.93,3.93,0,0,0-4.89,6.16L152,103.2v14.31H141.63a3.93,3.93,0,0,0-2.78,1.15L131.53,126l-10.11-10.11,2.4-21A3.93,3.93,0,1,0,116,94l-1.7,14.79-7.42-7.42,4-35.33a3.93,3.93,0,1,0-7.81-.89L99.79,94.23,82.44,76.88h0L90,69.36l-21-.43.43,21,7.52-7.52h0L94.23,99.79l-29.12,3.33a3.93,3.93,0,0,0,.44,7.84,3.4,3.4,0,0,0,.45,0l35.33-4,7.42,7.43L94,116a3.93,3.93,0,0,0,.44,7.84,3.4,3.4,0,0,0,.45,0l21-2.4L126,131.53l-7.31,7.32a3.93,3.93,0,0,0-1.15,2.78V152H103.2L90.05,135.42a3.94,3.94,0,0,0-6.16,4.9L93.15,152H82.65L60.53,124.13a3.93,3.93,0,1,0-6.15,4.9L72.61,152H48.07V141.34L32.9,155.91l15.17,14.56V159.84H72.61L54.38,182.78a3.93,3.93,0,0,0,6.15,4.9l22.12-27.84H93.16L83.89,171.5a3.93,3.93,0,1,0,6.16,4.89l13.15-16.55h14.31v10.34a3.89,3.89,0,0,0,1.15,2.78l7.31,7.32-10.11,10.11-21-2.4A3.93,3.93,0,0,0,94,195.8l14.79,1.7-7.42,7.42-35.33-4a3.93,3.93,0,1,0-.89,7.81L94.23,212,76.88,229.38h0l-7.52-7.52-.43,21,21-.43-7.52-7.51h0l17.35-17.35,3.33,29.11a3.93,3.93,0,0,0,3.9,3.49,3.4,3.4,0,0,0,.45,0,3.92,3.92,0,0,0,3.46-4.35l-4-35.33,7.42-7.42,1.7,14.79a3.93,3.93,0,0,0,3.9,3.49,3.4,3.4,0,0,0,.45,0,3.93,3.93,0,0,0,3.46-4.35l-2.4-21,10.11-10.12,7.32,7.31a3.94,3.94,0,0,0,2.78,1.16H152v14.3l-16.55,13.15a3.93,3.93,0,0,0,4.89,6.16L152,218.66v10.5l-27.83,22.12a3.93,3.93,0,1,0,4.89,6.15L152,239.2v24.54H141.34l14.57,15.17,14.56-15.17H159.84V239.2l22.95,18.24a3.93,3.93,0,0,0,4.89-6.16l-27.84-22.12v-10.5l11.66,9.26a3.93,3.93,0,0,0,4.89-6.16l-16.55-13.15v-14.3h10.34a3.92,3.92,0,0,0,2.78-1.16l7.32-7.31L190.39,196,188,217a3.93,3.93,0,0,0,3.46,4.35,3.4,3.4,0,0,0,.45,0,3.93,3.93,0,0,0,3.9-3.49l1.7-14.79,7.42,7.42-4,35.33a3.92,3.92,0,0,0,3.46,4.35,3.4,3.4,0,0,0,.45,0,3.93,3.93,0,0,0,3.9-3.49L212,217.59l17.35,17.35-7.52,7.51,21,.43-.43-21-7.51,7.51L217.59,212l29.11-3.34a3.93,3.93,0,0,0-.89-7.81l-35.33,4-7.42-7.42,14.79-1.7A3.93,3.93,0,1,0,217,188l-21,2.4-10.11-10.11,7.31-7.32a3.9,3.9,0,0,0,1.16-2.78V159.84h14.3l13.15,16.55a3.93,3.93,0,0,0,6.16-4.89l-9.26-11.66h10.5l22.12,27.84a3.93,3.93,0,1,0,6.15-4.9L239.2,159.84h24.54v10.63Zm-92.47-12.65V152h-11.6a19.54,19.54,0,0,0-2.78-6.66l8.22-8.22Zm-30.53,24.11a11.47,11.47,0,0,1-11.47-11.45h0v0a11.47,11.47,0,1,1,11.47,11.48Zm12.64-42,6.17,6.16-8.22,8.22a19.32,19.32,0,0,0-6.66-2.77V125.37Zm-25.29,0H152V137a19.32,19.32,0,0,0-6.66,2.77l-8.22-8.22Zm-17.89,17.89,6.16-6.17,8.22,8.22A19.54,19.54,0,0,0,137,152h-11.6Zm0,25.29v-8.71H137a19.46,19.46,0,0,0,2.78,6.66l-8.22,8.22Zm17.89,17.89-6.17-6.16,8.22-8.22a19.54,19.54,0,0,0,6.66,2.78v11.6Zm25.29,0h-8.71v-11.6a19.54,19.54,0,0,0,6.66-2.78l8.22,8.22Zm17.89-17.89-6.16,6.17-8.22-8.22a19.46,19.46,0,0,0,2.78-6.66h11.6Z"/></g></g></svg>